<?xml version="1.0" encoding="UTF-8"?>
<!DOCTYPE svg PUBLIC "-//W3C//DTD SVG 1.1//EN" "http://www.w3.org/Graphics/SVG/1.1/DTD/svg11.dtd">
<!-- Creator: CorelDRAW (Versão de avaliação) -->
<svg xmlns="http://www.w3.org/2000/svg" xml:space="preserve" width="26.4173mm" height="17.3779mm" version="1.1" style="shape-rendering:geometricPrecision; text-rendering:geometricPrecision; image-rendering:optimizeQuality; fill-rule:evenodd; clip-rule:evenodd"
viewBox="0 0 698.45 459.46"
 xmlns:xlink="http://www.w3.org/1999/xlink"
 xmlns:xodm="http://www.corel.com/coreldraw/odm/2003">
 <defs>
  <style type="text/css">
   <![CDATA[
    .fil2 {fill:#292E36}
    .fil0 {fill:#36404B}
    .fil1 {fill:#E54D41}
    .fil3 {fill:white}
   ]]>
  </style>
 </defs>
 <g id="Camada_x0020_1">
  <metadata id="CorelCorpID_0Corel-Layer"/>
  <path class="fil0" d="M1.78 415.33c7.08,25.42 24.5,42.88 53.23,43.71 32.11,0.93 65.8,0.02 98.08,0.01l390.37 0c32.63,0.01 65.47,0.35 98.07,-0.01 19.96,-0.22 37.36,-8.82 47.8,-25.41 3.8,-6.05 4.47,-10.57 7.39,-16.91 -0.26,-5.53 0.86,-10.04 0.83,-16.81l-0 -261.49c-9.49,2.58 -151.92,0.91 -174.64,0.97l-434.26 0.03c-27.19,0 -59.37,-1.59 -85.92,0.13l0.72 272.42c-0.67,4.26 1.54,1.34 -1.68,3.35z"/>
  <path class="fil1" d="M505.09 151.87c-21.03,1.43 -47.13,11.78 -63.39,23.03l-14.64 11.47c-7.41,5.37 -14.96,14.9 -20.49,22.42 -7.78,10.58 -13.07,21.43 -17.94,34.35 -16.46,43.69 -6.62,101.36 23.66,134.79 1.58,1.74 2.08,2.9 3.65,4.81l28.42 23.83c52.84,33.5 110.74,30.56 160.14,-6.33 7.55,-5.64 19.19,-16.5 24.02,-23.6 10.19,-14.99 14.21,-18.11 21.77,-38.85 6.51,-17.85 9.52,-42.37 7.32,-61.16 -3.41,-29.13 -10.01,-42.15 -22.84,-63.28 -1.64,-2.7 -1.07,-2.31 -3.39,-5.03 -2.19,-2.57 -2.31,-3.15 -3.97,-5.39 -4.45,-6.02 -11.8,-12.98 -17.79,-17.7 -1.62,-1.27 -2.78,-2.52 -4.4,-3.94 -2.44,-2.13 -2.26,-2.01 -4.74,-3.65 -3.23,-2.14 -7.22,-4.93 -10.74,-7 -7.35,-4.32 -14.78,-7.73 -23.39,-11.14 -18.49,-7.33 -41.24,-8.99 -61.27,-7.63z"/>
  <path class="fil2" d="M1.78 415.33c3.22,-2.01 1,0.91 1.68,-3.35l-0.72 -272.42c26.54,-1.72 58.73,-0.13 85.92,-0.13l434.26 -0.03c22.72,-0.06 165.14,1.61 174.64,-0.97l0 -67.25c-7.29,-2.52 -74.31,-1.01 -87.78,-1.01l-260.56 0.01c-57.9,0.2 -115.81,-0.13 -173.7,0.01 -19.56,0.04 -166.59,1.13 -172.78,-0.51 0,-5.19 -0.21,-10.82 -0.02,-15.95 0.43,-11.87 3.91,-11.77 0.03,-13.32 -4.54,23.53 -2.07,66.5 -2.07,92.42 0,30.96 -1.31,262.68 1.11,282.52z"/>
  <path class="fil0" d="M2.74 40.4c3.88,1.55 0.4,1.45 -0.03,13.32 -0.19,5.13 0.02,10.76 0.02,15.95 6.19,1.64 153.21,0.55 172.78,0.51 57.9,-0.13 115.8,0.19 173.7,-0.01l260.56 -0.01c13.48,0 80.5,-1.5 87.78,1.01l0 67.25 0 261.49c0.02,6.77 -1.09,11.28 -0.83,16.81 2.79,-17.95 1.3,-116.88 1.3,-142.88l0 -215.73c0.01,-24.19 -9.86,-39.19 -23.97,-48.46 -17.73,-11.64 -40.41,-8.87 -63.35,-8.87l-503.37 0.01c-33.88,-0.04 -64.11,-5.35 -86.37,12.01 -3.62,2.82 -9.89,9.84 -12.59,14.62 -1.99,3.52 -4.58,8.62 -5.63,12.99z"/>
  <path class="fil3" d="M508.72 169.67c-28.26,1.66 -52.45,15.06 -72.38,32.54 -26.23,23.01 -40.32,63.76 -37.13,99.47 1.7,19.03 6.8,31.69 14.16,46.29 20.08,39.88 70.72,68.28 117.15,63.41 23.05,-2.42 47.64,-11.66 63.98,-25.85 9.09,-7.89 15.52,-13.33 22.57,-23.08 28.3,-39.08 30.44,-85.68 8.91,-129.22 -1.5,-3.04 -3.83,-6.55 -5.73,-9.16l-9.67 -12.68c-3.83,-4.66 -10.79,-11.96 -15.49,-15.29 -27.21,-19.27 -48.94,-28.64 -86.38,-26.44z"/>
  <path class="fil3" d="M73.37 260.72c-13.45,2.39 -13.41,13.29 -13.4,27.13 0.03,42.61 -3.23,35.3 84.72,35.39 26.77,0.03 53.54,-0.04 80.32,0 11.77,0.02 75.01,0.79 81,-0.34 12.92,-2.44 12.67,-14.06 12.67,-27.58 0,-6.19 0.38,-13.64 -0.04,-19.68 -0.37,-5.3 -3.1,-10.35 -7.58,-13.07 -6.7,-4.06 -65.3,-2.06 -77.65,-2.07 -9.98,-0.01 -154.24,-0.82 -160.04,0.21z"/>
  <path class="fil0" d="M552.28 266.1c13.42,3.46 8.03,-1.03 16.17,-4.52 15.39,-6.6 26.35,9.46 16.4,18.13 -5.18,4.51 -11.94,2.93 -18.28,5.9 -3.02,14.03 7.65,8.05 16.8,11.96 20.01,8.55 -3.21,34.06 -19.38,19.2 -2.72,-2.5 -3.58,-6.05 -9.98,-4.59 -4.85,1.11 -5.75,5.63 -3.53,9.55 10.59,18.7 56.56,16.81 54.15,-14.3 -0.72,-9.35 -6.4,-14.89 -12.3,-18.64 16.13,-14.67 12.14,-30.78 -2.31,-38.25 -14.6,-7.55 -42.4,-1.11 -37.73,15.57z"/>
  <path class="fil0" d="M504.13 319.37l16.44 -17.09c16.28,-14.02 24.53,-36.18 6.46,-50.35 -12.34,-9.68 -34.3,-3.33 -40.27,6.38 -4.92,8 3.19,15.91 10.26,9.27 2.12,-1.99 8.16,-11.13 18.82,-6.21 6.57,3.03 8.53,9.86 5.46,18.47 -4.97,13.93 -36.69,36.81 -37.24,45.58 -0.6,9.53 11.45,7.55 19.25,7.55 8.21,-0.01 20.25,0.71 28.01,-0.17 10.04,-1.14 9.66,-12.54 1,-13.52 -6.47,-0.73 -21.22,-0.2 -28.19,0.1z"/>
  <path class="fil0" d="M431.1 272.16c8.09,1.92 12.33,-3.82 18.55,-6.51 -0.29,7.74 -1.84,63.7 1.86,66.33 5.38,1.34 5.91,0.8 10.3,-0.54 2.66,-8.38 1.23,-56.67 1.24,-69.79 0.01,-16.05 -4.33,-16.68 -17.76,-8.58 -12.96,7.82 -19.33,9.37 -14.2,19.09z"/>
 </g>
</svg>
